<?xml version="1.0" encoding="UTF-8" standalone="no"?>
<!-- Uploaded to: SVG Repo, www.svgrepo.com, Generator: SVG Repo Mixer Tools -->

<svg
   fill="#000000"
   width="800px"
   height="800px"
   viewBox="0 0 512 512"
   version="1.1"
   id="svg1"
   sodipodi:docname="button_page.svg"
   inkscape:version="1.3.2 (091e20e, 2023-11-25, custom)"
   xmlns:inkscape="http://www.inkscape.org/namespaces/inkscape"
   xmlns:sodipodi="http://sodipodi.sourceforge.net/DTD/sodipodi-0.dtd"
   xmlns="http://www.w3.org/2000/svg"
   xmlns:svg="http://www.w3.org/2000/svg"
   xmlns:rdf="http://www.w3.org/1999/02/22-rdf-syntax-ns#"
   xmlns:cc="http://creativecommons.org/ns#"
   xmlns:dc="http://purl.org/dc/elements/1.1/">
  <defs
     id="defs1" />
  <sodipodi:namedview
     id="namedview1"
     pagecolor="#505050"
     bordercolor="#eeeeee"
     borderopacity="1"
     inkscape:showpageshadow="0"
     inkscape:pageopacity="0"
     inkscape:pagecheckerboard="0"
     inkscape:deskcolor="#505050"
     inkscape:zoom="1.05375"
     inkscape:cx="297.5089"
     inkscape:cy="131.43535"
     inkscape:window-width="1920"
     inkscape:window-height="1057"
     inkscape:window-x="-8"
     inkscape:window-y="-8"
     inkscape:window-maximized="1"
     inkscape:current-layer="svg1" />
  <title
     id="title1">box</title>
  <path
     d="m 68.112298,113.34757 q -1.79913,0 -2.955715,-1.15658 Q 64,111.0344 64,109.23527 V 68.112298 q 0,-1.79913 1.156583,-2.955715 Q 66.313168,64 68.112298,64 h 41.122972 q 1.79913,0 2.95572,1.156583 1.15658,1.156585 1.15658,2.955715 v 41.122972 q 0,1.79913 -1.15658,2.95572 -1.15659,1.15658 -2.95572,1.15658 z m 39.066822,-6.16845 V 70.168446 H 70.168446 v 37.010674 z"
     id="path1"
     inkscape:export-filename="..\..\img\menu\btn_page_hover.png"
     inkscape:export-xdpi="39.841476"
     inkscape:export-ydpi="39.841476"
     style="stroke-width:0.12851" />
  <metadata
     id="metadata1">
    <rdf:RDF>
      <cc:Work
         rdf:about="">
        <dc:title>box</dc:title>
      </cc:Work>
    </rdf:RDF>
  </metadata>
  <path
     d="m 157.7123,113.34757 q -1.79913,0 -2.95572,-1.15658 Q 153.6,111.0344 153.6,109.23527 V 68.112298 q 0,-1.79913 1.15658,-2.955715 Q 155.91317,64 157.7123,64 h 41.12297 q 1.79913,0 2.95572,1.156583 1.15658,1.156585 1.15658,2.955715 v 41.122972 q 0,1.79913 -1.15658,2.95572 -1.15659,1.15658 -2.95572,1.15658 z m 39.06682,-6.16845 V 70.168446 h -37.01067 v 37.010674 z"
     id="path2"
     inkscape:export-filename="..\..\img\menu\btn_page_on.png"
     inkscape:export-xdpi="39.841469"
     inkscape:export-ydpi="39.841469"
     style="fill:#333333;stroke-width:0.12851" />
</svg>
