<?xml version="1.0" encoding="UTF-8" standalone="no"?>
<!-- Created with Inkscape (http://www.inkscape.org/) -->

<svg
   xmlns:dc="http://purl.org/dc/elements/1.1/"
   xmlns:cc="http://creativecommons.org/ns#"
   xmlns:rdf="http://www.w3.org/1999/02/22-rdf-syntax-ns#"
   xmlns:svg="http://www.w3.org/2000/svg"
   xmlns="http://www.w3.org/2000/svg"
   xmlns:sodipodi="http://sodipodi.sourceforge.net/DTD/sodipodi-0.dtd"
   xmlns:inkscape="http://www.inkscape.org/namespaces/inkscape"
   width="210mm"
   height="297mm"
   viewBox="0 0 210 297"
   version="1.1"
   id="svg8"
   inkscape:version="0.92.4 (5da689c313, 2019-01-14)"
   sodipodi:docname="towers.svg">
  <defs
     id="defs2">
    <inkscape:perspective
       id="perspective10"
       inkscape:persp3d-origin="372.04724 : 350.78739 : 1"
       inkscape:vp_z="744.09448 : 526.18109 : 1"
       inkscape:vp_y="0 : 1000 : 0"
       inkscape:vp_x="0 : 526.18109 : 1"
       sodipodi:type="inkscape:persp3d" />
    <inkscape:perspective
       sodipodi:type="inkscape:persp3d"
       inkscape:vp_x="0 : 0.5 : 1"
       inkscape:vp_y="0 : 1000 : 0"
       inkscape:vp_z="1 : 0.5 : 1"
       inkscape:persp3d-origin="0.5 : 0.33333333 : 1"
       id="perspective2824" />
    <inkscape:perspective
       sodipodi:type="inkscape:persp3d"
       inkscape:vp_x="0 : 0.5 : 1"
       inkscape:vp_y="0 : 1000 : 0"
       inkscape:vp_z="1 : 0.5 : 1"
       inkscape:persp3d-origin="0.5 : 0.33333333 : 1"
       id="perspective2858" />
    <inkscape:perspective
       sodipodi:type="inkscape:persp3d"
       inkscape:vp_x="0 : 0.5 : 1"
       inkscape:vp_y="0 : 1000 : 0"
       inkscape:vp_z="1 : 0.5 : 1"
       inkscape:persp3d-origin="0.5 : 0.33333333 : 1"
       id="perspective2924" />
  </defs>
  <sodipodi:namedview
     id="base"
     pagecolor="#ffffff"
     bordercolor="#666666"
     borderopacity="1.0"
     inkscape:pageopacity="0.0"
     inkscape:pageshadow="2"
     inkscape:zoom="0.7"
     inkscape:cx="172.57411"
     inkscape:cy="597.13193"
     inkscape:document-units="mm"
     inkscape:current-layer="layer1"
     showgrid="false"
     inkscape:window-width="1920"
     inkscape:window-height="1017"
     inkscape:window-x="-8"
     inkscape:window-y="-8"
     inkscape:window-maximized="1" />
  <metadata
     id="metadata5">
    <rdf:RDF>
      <cc:Work
         rdf:about="">
        <dc:format>image/svg+xml</dc:format>
        <dc:type
           rdf:resource="http://purl.org/dc/dcmitype/StillImage" />
        <dc:title></dc:title>
      </cc:Work>
    </rdf:RDF>
  </metadata>
  <g
     inkscape:label="Capa 1"
     inkscape:groupmode="layer"
     id="layer1">
    <g
       id="g4799"
       transform="matrix(0.26458333,0,0,0.26458333,20.008118,-89.366213)">
      <g
         style="display:inline"
         inkscape:label="Capa#1"
         id="layer3">
        <rect
           inkscape:export-ydpi="33.257511"
           inkscape:export-xdpi="33.257511"
           inkscape:export-filename="D:\www\giftowerdefense\_diseño\panel_juego_y_torres\tower1_u2.png"
           style="fill:#00ff00;fill-opacity:1;stroke:none"
           id="rect3643"
           width="93.644867"
           height="93.644867"
           x="227.39671"
           y="419.16592" />
        <rect
           inkscape:export-ydpi="33.257511"
           inkscape:export-xdpi="33.257511"
           inkscape:export-filename="D:\www\giftowerdefense\_diseño\panel_juego_y_torres\tower1_u1.png"
           y="419.16592"
           x="121.45183"
           height="93.644867"
           width="93.644867"
           id="rect3670"
           style="fill:#00ff00;fill-opacity:1;stroke:none" />
        <rect
           inkscape:export-ydpi="33.257523"
           inkscape:export-xdpi="33.257523"
           inkscape:export-filename="D:\www\giftowerdefense\_diseño\panel_juego_y_torres\tower1.png"
           y="419.16592"
           x="16.737684"
           height="93.644867"
           width="93.644867"
           id="rect2820"
           style="display:inline;fill:#00ff00;fill-opacity:1;stroke:none" />
        <rect
           inkscape:export-ydpi="33.257511"
           inkscape:export-xdpi="33.257511"
           inkscape:export-filename="D:\www\giftowerdefense\_diseño\panel_juego_y_torres\tower2.png"
           style="display:inline;fill:#ff0000;fill-opacity:1;stroke:none"
           id="rect3664"
           width="93.644867"
           height="93.644867"
           x="15.284698"
           y="539.67999" />
        <rect
           inkscape:export-ydpi="33.257511"
           inkscape:export-xdpi="33.257511"
           inkscape:export-filename="D:\www\giftowerdefense\_diseño\panel_juego_y_torres\tower2_u1.png"
           y="539.67999"
           x="120.41463"
           height="93.644867"
           width="93.644867"
           id="rect3697"
           style="display:inline;fill:#ff0000;fill-opacity:1;stroke:none" />
        <rect
           inkscape:export-ydpi="33.257511"
           inkscape:export-xdpi="33.257511"
           inkscape:export-filename="D:\www\giftowerdefense\_diseño\panel_juego_y_torres\tower2_u3.png"
           style="display:inline;fill:#ff0000;fill-opacity:1;stroke:none"
           id="rect3736"
           width="93.644867"
           height="93.644867"
           x="331.16971"
           y="539.67999" />
        <rect
           inkscape:export-ydpi="33.257511"
           inkscape:export-xdpi="33.257511"
           inkscape:export-filename="D:\www\giftowerdefense\_diseño\panel_juego_y_torres\tower2_u2.png"
           y="539.67999"
           x="225.13707"
           height="93.644867"
           width="93.644867"
           id="rect3763"
           style="display:inline;fill:#ff0000;fill-opacity:1;stroke:none" />
        <rect
           style="display:inline;fill:#ff0000;fill-opacity:1;stroke:none"
           id="rect2969"
           width="93.644867"
           height="93.644867"
           x="435.21365"
           y="539.67999"
           inkscape:export-filename="D:\www\giftowerdefense\_diseño\panel_juego_y_torres\tower2_u4.png"
           inkscape:export-xdpi="55.742512"
           inkscape:export-ydpi="55.742512" />
        <rect
           y="539.67999"
           x="539.828"
           height="93.644867"
           width="93.644867"
           id="rect3000"
           style="display:inline;fill:#ff0000;fill-opacity:1;stroke:none"
           inkscape:export-filename="D:\www\giftowerdefense\_diseño\panel_juego_y_torres\tower2_u5.png"
           inkscape:export-xdpi="55.742512"
           inkscape:export-ydpi="55.742512" />
        <rect
           inkscape:export-ydpi="33.257511"
           inkscape:export-xdpi="33.257511"
           inkscape:export-filename="D:\www\giftowerdefense\_diseño\panel_juego_y_torres\tower1_u3.png"
           style="display:inline;fill:#00ff00;fill-opacity:1;stroke:none"
           id="rect3683"
           width="93.644867"
           height="93.644867"
           x="330.89673"
           y="419.16592" />
        <rect
           y="419.16592"
           x="434.54288"
           height="93.644867"
           width="93.644867"
           id="rect2887"
           style="display:inline;fill:#00ff00;fill-opacity:1;stroke:none"
           inkscape:export-filename="D:\www\giftowerdefense\_diseño\panel_juego_y_torres\tower1_u4.png"
           inkscape:export-xdpi="55.742512"
           inkscape:export-ydpi="55.742512" />
        <rect
           inkscape:export-ydpi="55.742493"
           inkscape:export-xdpi="55.742493"
           inkscape:export-filename="D:\www\giftowerdefense\_diseño\panel_juego_y_torres\tower1_u5.png"
           style="display:inline;fill:#00ff00;fill-opacity:1;stroke:none"
           id="rect2921"
           width="93.644867"
           height="93.644867"
           x="539.7207"
           y="419.16592" />
        <rect
           y="832.07385"
           x="26.498701"
           height="67.711792"
           width="79.508743"
           id="rect2849"
           style="fill:#ff0000;fill-opacity:1;stroke:#550000;stroke-width:3.22389889" />
        <g
           id="g2952">
          <path
             style="display:inline;fill:#ffcc00;fill-opacity:1;stroke:none"
             d="m 15.989796,666.73505 v 93.645 H 109.6348 v -93.645 z m 31.381039,18.18108 c 6.76595,0 12.492879,3.94974 15.192408,9.71317 2.69945,-5.76343 8.430762,-9.71317 15.192407,-9.71317 9.331827,0 16.935801,7.58636 16.935801,16.93579 0,18.40081 -19.782128,23.91989 -32.128208,42.58855 -13.048934,-18.78965 -32.128208,-23.57422 -32.128208,-42.58855 0,-9.34943 7.599669,-16.93579 16.9358,-16.93579 z"
             id="rect3666"
             inkscape:export-filename="D:\www\giftowerdefense\_diseño\panel_juego_y_torres\tower3_u0.png"
             inkscape:export-xdpi="46.131672"
             inkscape:export-ydpi="46.131672"
             inkscape:connector-curvature="0" />
          <g
             transform="matrix(8.1289492,0,0,8.1289492,-1870.462,-1131.7539)"
             id="g3678">
            <path
               style="opacity:0.39183673;fill:#d45500;fill-opacity:1;stroke:#552200;stroke-width:0.54462361"
               d="m 235.99367,223.28187 c -1.17144,0 -2.12103,0.95139 -2.12103,2.1245 0,2.3858 2.40131,3.01139 4.03861,5.369 1.54911,-2.34243 4.03861,-3.06018 4.03861,-5.369 0,-1.17311 -0.95013,-2.1245 -2.12103,-2.1245 -0.84841,0 -1.57887,0.50199 -1.91758,1.22515 -0.33872,-0.72316 -1.06863,-1.22515 -1.91758,-1.22515 z"
               sodipodi:nodetypes="ccccccc"
               id="path3680"
               inkscape:connector-curvature="0" />
            <path
               style="fill:none;stroke:#803300;stroke-width:0.54462361"
               d="m 235.99367,223.28187 c -1.17144,0 -2.12103,0.95139 -2.12103,2.1245 0,2.3858 2.40131,3.01139 4.03861,5.369 1.54911,-2.34243 4.03861,-3.06018 4.03861,-5.369 0,-1.17311 -0.95013,-2.1245 -2.12103,-2.1245 -0.84841,0 -1.57887,0.50199 -1.91758,1.22515 -0.33872,-0.72316 -1.06863,-1.22515 -1.91758,-1.22515 z"
               sodipodi:nodetypes="ccccccc"
               id="path3682"
               inkscape:connector-curvature="0" />
          </g>
        </g>
        <g
           inkscape:export-ydpi="46"
           inkscape:export-xdpi="46"
           inkscape:export-filename="D:\www\giftowerdefense\_diseño\panel_juego_y_torres\tower3_u5.png"
           id="g3949">
          <path
             inkscape:export-ydpi="46.131672"
             inkscape:export-xdpi="46.131672"
             inkscape:export-filename="D:\www\giftowerdefense\_diseño\panel_juego_y_torres\tower3_u0.png"
             id="path3774"
             d="m 537.79737,666.73505 v 93.645 h 93.645 v -93.645 z m 31.38104,18.18108 c 6.76595,0 12.49287,3.94974 15.1924,9.71317 2.69945,-5.76343 8.43077,-9.71317 15.19241,-9.71317 9.33183,0 16.9358,7.58636 16.9358,16.93579 0,18.40081 -19.78213,23.91989 -32.12821,42.58855 -13.04893,-18.78965 -32.1282,-23.57422 -32.1282,-42.58855 0,-9.34943 7.59966,-16.93579 16.9358,-16.93579 z"
             style="display:inline;fill:#ffcc00;fill-opacity:1;stroke:none"
             inkscape:connector-curvature="0" />
          <path
             style="fill:#ffe6d5;stroke:#803300;stroke-width:4"
             d="m 569.21875,676.15625 c -1.18867,0.0352 -2.15809,0.14916 -2.90625,0.15625 -10.94087,0.50694 -21.0625,10.22501 -21.0625,22.84375 0,25.66325 23.82592,32.10875 40.0625,57.46875 15.36203,-25.19672 40.0625,-32.63355 40.0625,-57.46875 0,-12.61874 -9.41981,-21.99885 -21.03125,-22.84375 -2.90817,-0.0283 -10.23048,-1.55779 -19.03125,5.84375 -7.04987,-5.60126 -12.52773,-6.10556 -16.09375,-6 z m 0.5,7.125 c 6.90107,0 12.84031,4.09022 15.59375,9.96875 2.75336,-5.87853 8.69707,-9.96875 15.59375,-9.96875 9.51819,0 17.25,7.7451 17.25,17.28125 0,18.76828 -20.25111,24.61476 -32.84375,43.65625 C 572.00297,725.05386 552.5,719.95655 552.5,700.5625 c 0,-9.53615 7.69617,-17.28125 17.21875,-17.28125 z"
             id="path3831"
             inkscape:connector-curvature="0" />
          <g
             id="g3776"
             transform="matrix(8.1289492,0,0,8.1289492,-1348.6544,-1131.7539)">
            <path
               id="path3778"
               sodipodi:nodetypes="ccccccc"
               d="m 235.99367,223.28187 c -1.17144,0 -2.12103,0.95139 -2.12103,2.1245 0,2.3858 2.40131,3.01139 4.03861,5.369 1.54911,-2.34243 4.03861,-3.06018 4.03861,-5.369 0,-1.17311 -0.95013,-2.1245 -2.12103,-2.1245 -0.84841,0 -1.57887,0.50199 -1.91758,1.22515 -0.33872,-0.72316 -1.06863,-1.22515 -1.91758,-1.22515 z"
               style="opacity:0.39183673;fill:#d45500;fill-opacity:1;stroke:#552200;stroke-width:0.54462361"
               inkscape:connector-curvature="0" />
            <path
               id="path3780"
               sodipodi:nodetypes="ccccccc"
               d="m 235.99367,223.28187 c -1.17144,0 -2.12103,0.95139 -2.12103,2.1245 0,2.3858 2.40131,3.01139 4.03861,5.369 1.54911,-2.34243 4.03861,-3.06018 4.03861,-5.369 0,-1.17311 -0.95013,-2.1245 -2.12103,-2.1245 -0.84841,0 -1.57887,0.50199 -1.91758,1.22515 -0.33872,-0.72316 -1.06863,-1.22515 -1.91758,-1.22515 z"
               style="fill:none;stroke:#803300;stroke-width:0.54462361"
               inkscape:connector-curvature="0" />
          </g>
        </g>
      </g>
      <g
         style="display:inline"
         inkscape:label="Capa"
         id="layer2">
        <g
           transform="matrix(0.59662749,0,0,0.59662749,6.1654268,217.97765)"
           id="g3817">
          <path
             style="fill:#008000;fill-opacity:1;stroke:none"
             d="m 95.539055,364.34447 -36.406845,65.45001 21.269235,28.79345 h 30.275225 l 21.26922,-28.79345 z"
             id="path3673"
             sodipodi:nodetypes="cccccc"
             inkscape:export-xdpi="18.203581"
             inkscape:export-ydpi="18.203581"
             inkscape:connector-curvature="0" />
          <path
             inkscape:export-ydpi="18.203581"
             inkscape:export-xdpi="18.203581"
             sodipodi:nodetypes="cccccc"
             id="path2822"
             d="m 95.539055,381.57578 -25.85511,46.48074 15.104805,20.4483 h 21.50061 l 15.1048,-20.4483 z"
             style="fill:#00c200;fill-opacity:1;stroke:none"
             inkscape:connector-curvature="0" />
        </g>
        <g
           transform="matrix(0.35540113,0,0,0.35540113,-5.9624558,342.61539)"
           id="g3672">
          <g
             style="display:inline"
             id="g3618"
             transform="matrix(1,0,0,0.88700332,924.24348,231.62514)">
            <g
               id="g3625"
               transform="translate(0,8.0680807)">
              <circle
                 transform="matrix(0.86986504,0,0,0.86986504,-95.376243,67.505987)"
                 style="fill:#aa0000;fill-opacity:1;stroke:none"
                 id="path3614"
                 cx="-732.90253"
                 cy="518.73828"
                 r="61.997795" />
              <rect
                 style="fill:#aa0000;fill-opacity:1;stroke:none"
                 id="rect3616"
                 width="39.855724"
                 height="147.60727"
                 x="-753.04462"
                 y="415.41501" />
            </g>
          </g>
          <circle
             id="path3633"
             style="fill:#ff5555;fill-opacity:1;stroke:none"
             transform="matrix(0.63920391,0,0,0.56697599,659.81511,404.60749)"
             cx="-732.90253"
             cy="518.73828"
             r="61.997795" />
          <rect
             y="-695.55359"
             x="183.57103"
             height="77.439423"
             width="15.082373"
             id="rect3635"
             style="fill:#ff5555;fill-opacity:1;stroke:none"
             transform="scale(1,-1)" />
        </g>
        <g
           transform="matrix(0.59662749,0,0,0.59662749,6.1654268,217.97765)"
           id="g3803">
          <path
             inkscape:export-ydpi="18.203581"
             inkscape:export-xdpi="18.203581"
             sodipodi:nodetypes="cccccc"
             id="path3645"
             d="m 448.6221,364.34447 -36.40685,65.45001 21.26924,28.79345 h 30.27522 l 21.26923,-28.79345 z"
             style="fill:#008000;fill-opacity:1;stroke:none"
             inkscape:connector-curvature="0" />
          <path
             style="fill:#00c200;fill-opacity:1;stroke:none"
             d="m 448.6221,381.57578 -25.85511,46.48074 15.1048,20.44829 h 21.50061 l 15.1048,-20.44829 z"
             id="path3647"
             sodipodi:nodetypes="cccccc"
             inkscape:export-xdpi="18.203581"
             inkscape:export-ydpi="18.203581"
             inkscape:connector-curvature="0" />
          <path
             sodipodi:nodetypes="cccccc"
             id="path3649"
             d="m 408.26074,435.90862 21.8634,29.91832 h -11.21938 l -21.37471,-29.96921 10.73069,0.0509 v 2e-5 z"
             style="fill:#008000;stroke:none"
             inkscape:connector-curvature="0" />
          <path
             style="fill:#008000;stroke:none"
             d="m 489.01109,435.90862 -21.8634,29.91832 h 11.21937 l 21.37471,-29.96921 -10.73068,0.0509 v 2e-5 z"
             id="path3651"
             sodipodi:nodetypes="cccccc"
             inkscape:connector-curvature="0" />
        </g>
        <g
           transform="matrix(0.59662749,0,0,0.59662749,6.1654268,217.97765)"
           id="g3809">
          <path
             style="fill:#008000;fill-opacity:1;stroke:none"
             d="m 271.04918,364.34447 -36.40685,65.45001 21.26924,28.79345 h 30.27522 l 21.26923,-28.79345 z"
             id="path3672"
             sodipodi:nodetypes="cccccc"
             inkscape:export-xdpi="18.203581"
             inkscape:export-ydpi="18.203581"
             inkscape:connector-curvature="0" />
          <path
             inkscape:export-ydpi="18.203581"
             inkscape:export-xdpi="18.203581"
             sodipodi:nodetypes="cccccc"
             id="path3674"
             d="m 271.04918,381.57578 -25.85511,46.48074 15.1048,20.44829 h 21.50061 l 15.1048,-20.44829 z"
             style="fill:#00c200;fill-opacity:1;stroke:none"
             inkscape:connector-curvature="0" />
          <path
             style="fill:#008000;fill-opacity:1;stroke:none"
             d="m 255.71391,467.2868 h 30.66635 v 8.20989 h -30.66635 z"
             id="rect3680"
             inkscape:connector-curvature="0" />
        </g>
        <path
           style="fill:#008000;fill-opacity:1;stroke:none"
           d="m 377.32571,435.35558 -21.72133,39.04927 12.68982,17.17897 h 18.06303 l 12.6898,-17.17897 z"
           id="path3685"
           sodipodi:nodetypes="cccccc"
           inkscape:export-xdpi="18.203581"
           inkscape:export-ydpi="18.203581"
           inkscape:connector-curvature="0" />
        <path
           inkscape:export-ydpi="18.203581"
           inkscape:export-xdpi="18.203581"
           sodipodi:nodetypes="cccccc"
           id="path3687"
           d="m 377.32571,445.63625 -15.42587,27.73169 9.01194,12.20001 h 12.82786 l 9.01194,-12.20001 z"
           style="fill:#00c200;fill-opacity:1;stroke:none"
           inkscape:connector-curvature="0" />
        <path
           style="fill:#008000;stroke:none"
           d="m 353.24501,478.05272 13.04431,17.85009 h -6.69379 l -12.75274,-17.88046 6.40222,0.0304 v 10e-6 z"
           id="path3689"
           sodipodi:nodetypes="cccccc"
           inkscape:connector-curvature="0" />
        <path
           sodipodi:nodetypes="cccccc"
           id="path3691"
           d="m 401.42289,478.05272 -13.0443,17.85009 h 6.69378 l 12.75274,-17.88046 -6.40222,0.0304 v 10e-6 z"
           style="fill:#008000;stroke:none"
           inkscape:connector-curvature="0" />
        <path
           style="fill:#008000;fill-opacity:1;stroke:none"
           d="m 368.17627,496.7738 h 18.29639 v 4.89825 h -18.29639 z"
           id="path3693"
           inkscape:connector-curvature="0" />
        <g
           transform="matrix(0.35540113,0,0,0.31524199,427.64465,427.47863)"
           id="g3703">
          <circle
             id="path3705"
             style="fill:#aa0000;fill-opacity:1;stroke:none"
             transform="matrix(0.86986504,0,0,0.86986504,-95.376243,67.505987)"
             cx="-732.90253"
             cy="518.73828"
             r="61.997795" />
          <rect
             y="415.41501"
             x="-753.04462"
             height="147.60727"
             width="39.855724"
             id="rect3707"
             style="fill:#aa0000;fill-opacity:1;stroke:none" />
        </g>
        <circle
           id="path3709"
           style="fill:#ff5555;fill-opacity:1;stroke:none"
           transform="matrix(0.22717379,0,0,0.20150391,333.6665,486.41335)"
           cx="-732.90253"
           cy="518.73828"
           r="61.997795" />
        <rect
           y="-589.81592"
           x="164.40881"
           height="27.522058"
           width="5.360292"
           id="rect3711"
           style="fill:#ff5555;fill-opacity:1;stroke:none"
           transform="scale(1,-1)" />
        <path
           id="path3713"
           d="m 178.53484,609.64495 c -3.37364,1.79539 -7.26683,2.83398 -11.4105,2.83398 -4.09795,0 -7.95095,-1.01933 -11.29864,-2.77804 l -2.94584,5.08997 c 4.2189,2.2162 9.07959,3.4679 14.24448,3.4679 5.22488,0 10.12204,-1.27816 14.37499,-3.54247 z"
           style="fill:#aa0000;fill-opacity:1;stroke:none"
           inkscape:connector-curvature="0" />
        <g
           id="g3738"
           transform="matrix(0.35540113,0,0,0.31524199,638.39971,427.47863)">
          <circle
             transform="matrix(0.86986504,0,0,0.86986504,-95.376243,67.505987)"
             style="fill:#aa0000;fill-opacity:1;stroke:none"
             id="path3740"
             cx="-732.90253"
             cy="518.73828"
             r="61.997795" />
          <rect
             style="fill:#aa0000;fill-opacity:1;stroke:none"
             id="rect3742"
             width="39.855724"
             height="147.60727"
             x="-753.04462"
             y="415.41501" />
        </g>
        <circle
           transform="matrix(0.22717379,0,0,0.20150391,544.42156,486.41335)"
           style="fill:#ff5555;fill-opacity:1;stroke:none"
           id="path3744"
           cx="-732.90253"
           cy="518.73828"
           r="61.997795" />
        <rect
           transform="scale(1,-1)"
           style="fill:#ff5555;fill-opacity:1;stroke:none"
           id="rect3746"
           width="5.360292"
           height="27.522058"
           x="375.16388"
           y="-589.81592" />
        <path
           id="path3748"
           d="m 349.56184,582.72214 c -0.72499,2.42393 -1.11868,4.98119 -1.11868,7.62564 0,7.66766 3.25848,14.62347 8.53923,19.67006 l 4.25097,-4.15774 c -4.14495,-3.99298 -6.69341,-9.46964 -6.69341,-15.51232 0,-2.10356 0.31598,-4.13168 0.89494,-6.0595 z"
           style="fill:#aa0000;fill-opacity:1;stroke:none"
           inkscape:connector-curvature="0" />
        <path
           id="path3789"
           d="m 366.43521,609.62631 -2.94585,5.08998 c 4.25295,2.26431 9.16876,3.54247 14.39364,3.54247 5.00561,0 9.70785,-1.17228 13.8343,-3.2628 l -2.88992,-5.10863 c -3.26698,1.64928 -6.98527,2.5916 -10.94438,2.5916 -4.15891,0 -8.06557,-1.04494 -11.44779,-2.85262 z"
           style="fill:#aa0000;fill-opacity:1;stroke:none"
           inkscape:connector-curvature="0" />
        <path
           id="path3791"
           d="m 406.09229,582.42382 -5.87305,1.51022 c 0.64765,2.02953 1.00681,4.18415 1.00681,6.41374 0,6.18603 -2.69055,11.77692 -7.01037,15.79199 l 4.19503,4.19503 c 5.48477,-5.07125 8.89348,-12.15257 8.89348,-19.98702 0,-2.75399 -0.42789,-5.4113 -1.2119,-7.92396 z"
           style="fill:#aa0000;fill-opacity:1;stroke:none"
           inkscape:connector-curvature="0" />
        <g
           transform="matrix(0.35540113,0,0,0.31524199,532.36709,427.47863)"
           id="g3765">
          <circle
             id="path3767"
             style="fill:#aa0000;fill-opacity:1;stroke:none"
             transform="matrix(0.86986504,0,0,0.86986504,-95.376243,67.505987)"
             cx="-732.90253"
             cy="518.73828"
             r="61.997795" />
          <rect
             y="415.41501"
             x="-753.04462"
             height="147.60727"
             width="39.855724"
             id="rect3769"
             style="fill:#aa0000;fill-opacity:1;stroke:none" />
        </g>
        <circle
           id="path3771"
           style="fill:#ff5555;fill-opacity:1;stroke:none"
           transform="matrix(0.22717379,0,0,0.20150391,438.38895,486.41335)"
           cx="-732.90253"
           cy="518.73828"
           r="61.997795" />
        <rect
           y="-589.81592"
           x="269.13126"
           height="27.522058"
           width="5.360292"
           id="rect3773"
           style="fill:#ff5555;fill-opacity:1;stroke:none"
           transform="scale(1,-1)" />
        <path
           id="path3775"
           d="m 250.42845,599.16668 -5.55609,2.36787 c 4.02712,8.72414 12.61754,15.11675 22.91422,16.46319 l 0.74579,-5.74254 c -8.13816,-1.09673 -14.93108,-6.17842 -18.10392,-13.08852 z"
           style="fill:#aa0000;fill-opacity:1;stroke:none"
           inkscape:connector-curvature="0" />
        <path
           id="path3783"
           d="m 293.38563,598.88701 c -3.14226,7.11377 -10.09756,12.33565 -18.43952,13.38683 l 0.82036,5.74254 c 10.48624,-1.32589 19.21748,-7.88506 23.1939,-16.81744 z"
           style="fill:#aa0000;fill-opacity:1;stroke:none"
           inkscape:connector-curvature="0" />
        <path
           inkscape:export-ydpi="18.203581"
           inkscape:export-xdpi="18.203581"
           sodipodi:nodetypes="cccccc"
           id="path2891"
           d="m 480.97186,435.35558 -21.72133,39.04927 12.68981,17.17897 h 18.06303 l 12.68981,-17.17897 z"
           style="fill:#008000;fill-opacity:1;stroke:none"
           inkscape:connector-curvature="0" />
        <path
           style="fill:#00c200;fill-opacity:1;stroke:none"
           d="m 480.97186,445.63625 -15.42587,27.73169 9.01193,12.20001 h 12.82786 l 9.01194,-12.20001 z"
           id="path2893"
           sodipodi:nodetypes="cccccc"
           inkscape:export-xdpi="18.203581"
           inkscape:export-ydpi="18.203581"
           inkscape:connector-curvature="0" />
        <path
           sodipodi:nodetypes="cccccc"
           id="path2895"
           d="m 456.89116,478.05272 13.0443,17.85009 h -6.69379 l -12.75274,-17.88046 6.40223,0.0304 v 10e-6 z"
           style="fill:#008000;stroke:none"
           inkscape:connector-curvature="0" />
        <path
           style="fill:#008000;stroke:none"
           d="m 505.06904,478.05272 -13.04431,17.85009 h 6.69379 l 12.75274,-17.88046 -6.40222,0.0304 v 10e-6 z"
           id="path2897"
           sodipodi:nodetypes="cccccc"
           inkscape:connector-curvature="0" />
        <path
           style="fill:#008000;stroke:none"
           d="m 456.81797,470.97175 10.07843,-17.85009 h -6.69379 l -9.78687,17.88046 6.40223,-0.0304 v -1e-5 z"
           id="path2913"
           sodipodi:nodetypes="ccccccc"
           inkscape:connector-curvature="0" />
        <path
           sodipodi:nodetypes="ccccccc"
           id="path3070"
           d="m 566.1254,456.4682 -10.00594,18.3698 18.33573,24.037 h 24.1069 l 17.4522,-24.05292 -9.70023,-17.77092 z"
           style="fill:#98ff98;fill-opacity:1;stroke:#008000;stroke-width:5;stroke-linecap:butt;stroke-linejoin:miter;stroke-miterlimit:4;stroke-dasharray:none;stroke-opacity:1"
           inkscape:connector-curvature="0" />
        <g
           transform="translate(-2.8976081)"
           id="g3046">
          <path
             inkscape:export-ydpi="18.203581"
             inkscape:export-xdpi="18.203581"
             sodipodi:nodetypes="cccccc"
             id="path2923"
             d="m 589.04728,435.35558 -21.72133,39.04927 12.68981,17.17897 h 18.06303 l 12.68981,-17.17897 z"
             style="fill:#008000;fill-opacity:1;stroke:none"
             inkscape:connector-curvature="0" />
          <path
             style="fill:#00c200;fill-opacity:1;stroke:none"
             d="m 589.04728,445.63625 -15.42587,27.73169 9.01193,12.20001 h 12.82786 l 9.01194,-12.20001 z"
             id="path2925"
             sodipodi:nodetypes="cccccc"
             inkscape:export-xdpi="18.203581"
             inkscape:export-ydpi="18.203581"
             inkscape:connector-curvature="0" />
        </g>
        <g
           id="g2973"
           transform="matrix(0.35540113,0,0,0.31524199,742.44367,427.47863)">
          <circle
             transform="matrix(0.86986504,0,0,0.86986504,-95.376243,67.505987)"
             style="fill:#aa0000;fill-opacity:1;stroke:none"
             id="path2975"
             cx="-732.90253"
             cy="518.73828"
             r="61.997795" />
          <rect
             style="fill:#aa0000;fill-opacity:1;stroke:none"
             id="rect2977"
             width="39.855724"
             height="147.60727"
             x="-753.04462"
             y="415.41501" />
        </g>
        <circle
           transform="matrix(0.22717379,0,0,0.20150391,648.46553,486.41335)"
           style="fill:#ff5555;fill-opacity:1;stroke:none"
           id="path2979"
           cx="-732.90253"
           cy="518.73828"
           r="61.997795" />
        <rect
           transform="scale(1,-1)"
           style="fill:#ff5555;fill-opacity:1;stroke:none"
           id="rect2981"
           width="5.360292"
           height="27.522058"
           x="479.20782"
           y="-589.81592" />
        <path
           inkscape:transform-center-y="17.868584"
           inkscape:transform-center-x="14.970975"
           style="fill:#aa0000;fill-opacity:1;stroke:none"
           d="m 460.50503,599.16668 -5.55609,2.36787 c 4.02713,8.72414 12.61754,15.11675 22.91422,16.46319 l 0.74579,-5.74254 c -8.13816,-1.09673 -14.93108,-6.17842 -18.10392,-13.08852 z"
           id="path2983"
           inkscape:connector-curvature="0" />
        <path
           style="fill:#aa0000;fill-opacity:1;stroke:none"
           d="m 503.46221,598.88701 c -3.14226,7.11377 -10.09755,12.33565 -18.43952,13.38683 l 0.82037,5.74254 c 10.48623,-1.32589 19.21748,-7.88506 23.19389,-16.81744 z"
           id="path2985"
           inkscape:connector-curvature="0" />
        <ellipse
           transform="matrix(1.0591501,0,0,1.0742781,-40.840383,-44.266277)"
           id="path3857"
           style="fill:#ffa6a6;fill-opacity:1;stroke:none"
           cx="592.47888"
           cy="591.35553"
           rx="26.294453"
           ry="22.538101" />
        <g
           transform="matrix(0.35540113,0,0,0.31524199,847.05794,427.47863)"
           id="g3004">
          <circle
             id="path3006"
             style="fill:#aa0000;fill-opacity:1;stroke:none"
             transform="matrix(0.86986504,0,0,0.86986504,-95.376243,67.505987)"
             cx="-732.90253"
             cy="518.73828"
             r="61.997795" />
          <rect
             y="415.41501"
             x="-753.04462"
             height="147.60727"
             width="39.855724"
             id="rect3008"
             style="fill:#aa0000;fill-opacity:1;stroke:none" />
        </g>
        <circle
           id="path3010"
           style="fill:#ff5555;fill-opacity:1;stroke:none"
           transform="matrix(0.22717379,0,0,0.20150391,753.0798,486.41335)"
           cx="-732.90253"
           cy="518.73828"
           r="61.997795" />
        <path
           id="path3043"
           d="m 586.67353,563.35689 c -17.22714,0 -31.1875,12.38876 -31.1875,27.66531 0,15.27654 13.96036,27.6653 31.1875,27.6653 17.22714,0 31.1875,-12.38876 31.1875,-27.6653 0,-15.27655 -13.96036,-27.66531 -31.1875,-27.66531 z m 0,5.86659 c 13.57904,0 24.59375,9.7572 24.59375,21.79872 0,12.04151 -11.01471,21.79871 -24.59375,21.79871 -13.57904,0 -24.5625,-9.7572 -24.5625,-21.79871 0,-12.04152 10.98346,-21.79872 24.5625,-21.79872 z"
           style="fill:#aa0000;fill-opacity:1;stroke:none"
           inkscape:connector-curvature="0" />
        <rect
           y="-589.81592"
           x="583.82214"
           height="27.522058"
           width="5.360292"
           id="rect3012"
           style="fill:#ff5555;fill-opacity:1;stroke:none"
           transform="scale(1,-1)" />
        <path
           sodipodi:nodetypes="ccccc"
           style="fill:#aa0000;fill-opacity:1;stroke:none"
           d="m 458.73623,591.93274 c 0.20336,-7.77419 4.65254,-15.24738 11.9693,-19.38965 l -2.94099,-5.00004 c -9.19579,5.21121 -14.77959,14.59622 -15.06341,24.36959 z"
           id="path3020"
           inkscape:connector-curvature="0" />
        <path
           id="path3039"
           d="m 505.13656,591.93274 c -0.20336,-7.77419 -4.65254,-15.24738 -11.9693,-19.38965 l 2.94099,-5.00004 c 9.19579,5.21121 14.77959,14.59622 15.06341,24.36959 z"
           style="fill:#aa0000;fill-opacity:1;stroke:none"
           sodipodi:nodetypes="ccccc"
           inkscape:connector-curvature="0" />
        <g
           transform="translate(-12,6)"
           id="g3056" />
        <path
           sodipodi:nodetypes="ccccccc"
           id="path3859"
           d="m 504.92417,470.97175 -10.07843,-17.85009 h 6.69379 l 9.78687,17.88046 -6.40223,-0.0304 v -1e-5 z"
           style="fill:#008000;stroke:none"
           inkscape:connector-curvature="0" />
        <g
           inkscape:export-ydpi="46"
           inkscape:export-xdpi="46"
           inkscape:export-filename="D:\www\giftowerdefense\_diseño\panel_juego_y_torres\tower3_u1.png"
           id="g3903">
          <path
             inkscape:export-ydpi="46.131672"
             inkscape:export-xdpi="46.131672"
             inkscape:export-filename="D:\www\giftowerdefense\_diseño\panel_juego_y_torres\tower3_u0.png"
             id="path3732"
             d="m 120.08095,666.73505 v 93.645 h 93.645 v -93.645 z m 31.38103,18.18108 c 6.76595,0 12.49288,3.94974 15.19241,9.71317 2.69945,-5.76343 8.43076,-9.71317 15.19241,-9.71317 9.33183,0 16.9358,7.58636 16.9358,16.93579 0,18.40081 -19.78213,23.91989 -32.12821,42.58855 -13.04893,-18.78965 -32.12821,-23.57422 -32.12821,-42.58855 0,-9.34943 7.59967,-16.93579 16.9358,-16.93579 z"
             style="display:inline;fill:#ffcc00;fill-opacity:1;stroke:none"
             inkscape:connector-curvature="0" />
          <path
             style="display:inline;opacity:0.39183673;fill:#d45500;fill-opacity:1;stroke:#552200;stroke-width:4.42721748"
             d="m 152.00965,683.29308 c -9.52257,0 -17.24174,7.7338 -17.24174,17.26995 0,19.39405 19.52013,24.47944 32.82966,43.64433 12.59263,-19.0415 32.82965,-24.87605 32.82965,-43.64433 0,-9.53615 -7.72356,-17.26995 -17.24174,-17.26995 -6.89669,0 -12.83456,4.08065 -15.58791,9.95918 -2.75344,-5.87853 -8.68684,-9.95918 -15.58792,-9.95918 z"
             sodipodi:nodetypes="ccccccc"
             id="path3736"
             inkscape:connector-curvature="0" />
          <path
             style="display:inline;fill:none;stroke:#803300;stroke-width:4.42721748"
             d="m 152.00965,683.29308 c -9.52257,0 -17.24174,7.7338 -17.24174,17.26995 0,19.39405 19.52013,24.47944 32.82966,43.64433 12.59263,-19.0415 32.82965,-24.87605 32.82965,-43.64433 0,-9.53615 -7.72356,-17.26995 -17.24174,-17.26995 -6.89669,0 -12.83456,4.08065 -15.58791,9.95918 -2.75344,-5.87853 -8.68684,-9.95918 -15.58792,-9.95918 z"
             sodipodi:nodetypes="ccccccc"
             id="path3738"
             inkscape:connector-curvature="0" />
          <path
             id="path3788"
             d="m 178.53484,746.18009 c -3.37364,1.79539 -7.26683,2.83398 -11.4105,2.83398 -4.09795,0 -7.95095,-1.01933 -11.29864,-2.77804 l -2.94584,5.08997 c 4.2189,2.2162 9.07959,3.4679 14.24448,3.4679 5.22488,0 10.12204,-1.27816 14.37499,-3.54247 z"
             style="fill:#6b2b00;fill-opacity:1;stroke:none"
             inkscape:connector-curvature="0" />
        </g>
        <g
           inkscape:export-ydpi="46"
           inkscape:export-xdpi="46"
           inkscape:export-filename="D:\www\giftowerdefense\_diseño\panel_juego_y_torres\tower3_u2_png.png"
           id="g3914">
          <g
             style="display:inline"
             transform="translate(209.53413)"
             id="g3740">
            <path
               inkscape:export-ydpi="46.131672"
               inkscape:export-xdpi="46.131672"
               inkscape:export-filename="D:\www\giftowerdefense\_diseño\panel_juego_y_torres\tower3_u0.png"
               id="path3742"
               d="m 15.989796,666.73505 v 93.645 H 109.6348 v -93.645 z m 31.381039,18.18108 c 6.76595,0 12.492879,3.94974 15.192408,9.71317 2.69945,-5.76343 8.430762,-9.71317 15.192407,-9.71317 9.331827,0 16.935801,7.58636 16.935801,16.93579 0,18.40081 -19.782128,23.91989 -32.128208,42.58855 -13.048934,-18.78965 -32.128208,-23.57422 -32.128208,-42.58855 0,-9.34943 7.599669,-16.93579 16.9358,-16.93579 z"
               style="display:inline;fill:#ffcc00;fill-opacity:1;stroke:none"
               inkscape:connector-curvature="0" />
            <g
               id="g3744"
               transform="matrix(8.1289492,0,0,8.1289492,-1870.462,-1131.7539)">
              <path
                 id="path3746"
                 sodipodi:nodetypes="ccccccc"
                 d="m 235.99367,223.28187 c -1.17144,0 -2.12103,0.95139 -2.12103,2.1245 0,2.3858 2.40131,3.01139 4.03861,5.369 1.54911,-2.34243 4.03861,-3.06018 4.03861,-5.369 0,-1.17311 -0.95013,-2.1245 -2.12103,-2.1245 -0.84841,0 -1.57887,0.50199 -1.91758,1.22515 -0.33872,-0.72316 -1.06863,-1.22515 -1.91758,-1.22515 z"
                 style="opacity:0.39183673;fill:#d45500;fill-opacity:1;stroke:#552200;stroke-width:0.54462361"
                 inkscape:connector-curvature="0" />
              <path
                 id="path3749"
                 sodipodi:nodetypes="ccccccc"
                 d="m 235.99367,223.28187 c -1.17144,0 -2.12103,0.95139 -2.12103,2.1245 0,2.3858 2.40131,3.01139 4.03861,5.369 1.54911,-2.34243 4.03861,-3.06018 4.03861,-5.369 0,-1.17311 -0.95013,-2.1245 -2.12103,-2.1245 -0.84841,0 -1.57887,0.50199 -1.91758,1.22515 -0.33872,-0.72316 -1.06863,-1.22515 -1.91758,-1.22515 z"
                 style="fill:none;stroke:#803300;stroke-width:0.54462361"
                 inkscape:connector-curvature="0" />
            </g>
          </g>
          <path
             id="path3797"
             d="m 251.7223,735.70182 -5.55609,2.36787 c 4.02712,8.72414 12.61754,15.11675 22.91422,16.46319 l 0.74579,-5.74254 c -8.13816,-1.09673 -14.93108,-6.17842 -18.10392,-13.08852 z"
             style="fill:#6b2b00;fill-opacity:1;stroke:none"
             inkscape:connector-curvature="0" />
          <path
             id="path3799"
             d="m 294.67948,735.42215 c -3.14226,7.11377 -10.09756,12.33565 -18.43952,13.38683 l 0.82036,5.74254 c 10.48624,-1.32589 19.21748,-7.88506 23.1939,-16.81744 z"
             style="fill:#6b2b00;fill-opacity:1;stroke:none"
             inkscape:connector-curvature="0" />
        </g>
        <g
           inkscape:export-ydpi="46"
           inkscape:export-xdpi="46"
           inkscape:export-filename="D:\www\giftowerdefense\_diseño\panel_juego_y_torres\tower3_u3.png"
           id="g3928">
          <g
             style="display:inline"
             id="g3751"
             transform="translate(313.62528)">
            <path
               style="display:inline;fill:#ffcc00;fill-opacity:1;stroke:none"
               d="m 15.989796,666.73505 v 93.645 H 109.6348 v -93.645 z m 31.381039,18.18108 c 6.76595,0 12.492879,3.94974 15.192408,9.71317 2.69945,-5.76343 8.430762,-9.71317 15.192407,-9.71317 9.331827,0 16.935801,7.58636 16.935801,16.93579 0,18.40081 -19.782128,23.91989 -32.128208,42.58855 -13.048934,-18.78965 -32.128208,-23.57422 -32.128208,-42.58855 0,-9.34943 7.599669,-16.93579 16.9358,-16.93579 z"
               id="path3753"
               inkscape:export-filename="D:\www\giftowerdefense\_diseño\panel_juego_y_torres\tower3_u0.png"
               inkscape:export-xdpi="46.131672"
               inkscape:export-ydpi="46.131672"
               inkscape:connector-curvature="0" />
            <g
               transform="matrix(8.1289492,0,0,8.1289492,-1870.462,-1131.7539)"
               id="g3755">
              <path
                 style="opacity:0.39183673;fill:#d45500;fill-opacity:1;stroke:#552200;stroke-width:0.54462361"
                 d="m 235.99367,223.28187 c -1.17144,0 -2.12103,0.95139 -2.12103,2.1245 0,2.3858 2.40131,3.01139 4.03861,5.369 1.54911,-2.34243 4.03861,-3.06018 4.03861,-5.369 0,-1.17311 -0.95013,-2.1245 -2.12103,-2.1245 -0.84841,0 -1.57887,0.50199 -1.91758,1.22515 -0.33872,-0.72316 -1.06863,-1.22515 -1.91758,-1.22515 z"
                 sodipodi:nodetypes="ccccccc"
                 id="path3757"
                 inkscape:connector-curvature="0" />
              <path
                 style="fill:none;stroke:#803300;stroke-width:0.54462361"
                 d="m 235.99367,223.28187 c -1.17144,0 -2.12103,0.95139 -2.12103,2.1245 0,2.3858 2.40131,3.01139 4.03861,5.369 1.54911,-2.34243 4.03861,-3.06018 4.03861,-5.369 0,-1.17311 -0.95013,-2.1245 -2.12103,-2.1245 -0.84841,0 -1.57887,0.50199 -1.91758,1.22515 -0.33872,-0.72316 -1.06863,-1.22515 -1.91758,-1.22515 z"
                 sodipodi:nodetypes="ccccccc"
                 id="path3759"
                 inkscape:connector-curvature="0" />
            </g>
          </g>
          <path
             id="path3809"
             d="m 337.53339,722.4398 c -0.0729,2.52898 0.20866,5.10099 0.8931,7.65534 1.98453,7.40639 6.93228,13.28183 13.33924,16.7897 l 3.03002,-5.1163 c -5.03717,-2.78413 -8.91626,-7.41459 -10.48022,-13.25137 -0.54444,-2.03188 -0.76414,-4.07268 -0.70387,-6.08465 l -6.07827,0.007 z"
             style="fill:#6b2b00;fill-opacity:1;stroke:none"
             inkscape:connector-curvature="0" />
          <path
             id="path3811"
             d="m 365.75929,747.51329 -2.94585,5.08998 c 4.25295,2.26431 9.16876,3.54247 14.39364,3.54247 5.00561,0 9.70785,-1.17228 13.8343,-3.2628 l -2.88992,-5.10863 c -3.26698,1.64928 -6.98527,2.5916 -10.94438,2.5916 -4.15891,0 -8.06557,-1.04494 -11.44779,-2.85262 z"
             style="fill:#6b2b00;fill-opacity:1;stroke:none"
             inkscape:connector-curvature="0" />
          <path
             id="path3813"
             d="m 416.84662,722.16644 -6.0638,-0.0613 c 0.1003,2.128 -0.11044,4.30216 -0.6875,6.45578 -1.60106,5.97524 -5.64696,10.67926 -10.85876,13.43947 l 2.96633,5.13784 c 6.61042,-3.47888 11.73576,-9.43668 13.76346,-17.00417 0.71279,-2.66015 0.98724,-5.33766 0.88027,-7.96762 z"
             style="fill:#6b2b00;fill-opacity:1;stroke:none"
             inkscape:connector-curvature="0" />
        </g>
        <g
           inkscape:export-ydpi="46"
           inkscape:export-xdpi="46"
           inkscape:export-filename="D:\www\giftowerdefense\_diseño\panel_juego_y_torres\tower3_u4.png"
           id="g3938">
          <g
             style="display:inline"
             transform="translate(417.71643)"
             id="g3844">
            <path
               inkscape:export-ydpi="46.131672"
               inkscape:export-xdpi="46.131672"
               inkscape:export-filename="D:\www\giftowerdefense\_diseño\panel_juego_y_torres\tower3_u0.png"
               id="path3846"
               d="m 15.989796,666.73505 v 93.645 H 109.6348 v -93.645 z m 31.381039,18.18108 c 6.76595,0 12.492879,3.94974 15.192408,9.71317 2.69945,-5.76343 8.430762,-9.71317 15.192407,-9.71317 9.331827,0 16.935801,7.58636 16.935801,16.93579 0,18.40081 -19.782128,23.91989 -32.128208,42.58855 -13.048934,-18.78965 -32.128208,-23.57422 -32.128208,-42.58855 0,-9.34943 7.599669,-16.93579 16.9358,-16.93579 z"
               style="display:inline;fill:#ffcc00;fill-opacity:1;stroke:none"
               inkscape:connector-curvature="0" />
            <g
               id="g3848"
               transform="matrix(8.1289492,0,0,8.1289492,-1870.462,-1131.7539)">
              <path
                 id="path3850"
                 sodipodi:nodetypes="ccccccc"
                 d="m 235.99367,223.28187 c -1.17144,0 -2.12103,0.95139 -2.12103,2.1245 0,2.3858 2.40131,3.01139 4.03861,5.369 1.54911,-2.34243 4.03861,-3.06018 4.03861,-5.369 0,-1.17311 -0.95013,-2.1245 -2.12103,-2.1245 -0.84841,0 -1.57887,0.50199 -1.91758,1.22515 -0.33872,-0.72316 -1.06863,-1.22515 -1.91758,-1.22515 z"
                 style="opacity:0.39183673;fill:#d45500;fill-opacity:1;stroke:#552200;stroke-width:0.54462361"
                 inkscape:connector-curvature="0" />
              <path
                 id="path3852"
                 sodipodi:nodetypes="ccccccc"
                 d="m 235.99367,223.28187 c -1.17144,0 -2.12103,0.95139 -2.12103,2.1245 0,2.3858 2.40131,3.01139 4.03861,5.369 1.54911,-2.34243 4.03861,-3.06018 4.03861,-5.369 0,-1.17311 -0.95013,-2.1245 -2.12103,-2.1245 -0.84841,0 -1.57887,0.50199 -1.91758,1.22515 -0.33872,-0.72316 -1.06863,-1.22515 -1.91758,-1.22515 z"
                 style="fill:none;stroke:#803300;stroke-width:0.54462361"
                 inkscape:connector-curvature="0" />
            </g>
          </g>
          <path
             style="fill:#6b2b00;fill-opacity:1;stroke:none"
             d="m 441.62454,722.4398 c -0.0729,2.52898 0.20866,5.10099 0.8931,7.65534 1.98453,7.40639 6.93228,13.28183 13.33924,16.7897 l 3.03002,-5.1163 c -5.03717,-2.78413 -8.91626,-7.41459 -10.48022,-13.25137 -0.54444,-2.03188 -0.76414,-4.07268 -0.70387,-6.08465 l -6.07827,0.007 z"
             id="path3854"
             inkscape:connector-curvature="0" />
          <path
             style="fill:#6b2b00;fill-opacity:1;stroke:none"
             d="m 469.85044,747.51329 -2.94585,5.08998 c 4.25295,2.26431 9.16876,3.54247 14.39364,3.54247 5.00561,0 9.70785,-1.17228 13.8343,-3.2628 l -2.88992,-5.10863 c -3.26698,1.64928 -6.98527,2.5916 -10.94438,2.5916 -4.15891,0 -8.06557,-1.04494 -11.44779,-2.85262 z"
             id="path3856"
             inkscape:connector-curvature="0" />
          <path
             style="fill:#6b2b00;fill-opacity:1;stroke:none"
             d="m 520.93777,722.16644 -6.0638,-0.0613 c 0.1003,2.128 -0.11044,4.30216 -0.6875,6.45578 -1.60106,5.97524 -5.64696,10.67926 -10.85876,13.43947 l 2.96633,5.13784 c 6.61042,-3.47888 11.73576,-9.43668 13.76346,-17.00417 0.71279,-2.66015 0.98724,-5.33766 0.88027,-7.96762 z"
             id="path3858"
             inkscape:connector-curvature="0" />
          <path
             id="path3860"
             d="m 492.18668,679.0635 2.94585,-5.08998 c -4.25295,-2.26431 -9.16876,-3.54247 -14.39364,-3.54247 -5.00561,0 -9.70785,1.17228 -13.8343,3.2628 l 2.88992,5.10863 c 3.26698,-1.64928 6.98527,-2.5916 10.94438,-2.5916 4.15891,0 8.06557,1.04494 11.44779,2.85262 z"
             style="fill:#6b2b00;fill-opacity:1;stroke:none"
             inkscape:connector-curvature="0" />
        </g>
      </g>
    </g>
  </g>
</svg>
