<?xml version="1.0" encoding="UTF-8" standalone="no"?>
<!-- Created with Inkscape (http://www.inkscape.org/) -->

<svg
   xmlns:dc="http://purl.org/dc/elements/1.1/"
   xmlns:cc="http://creativecommons.org/ns#"
   xmlns:rdf="http://www.w3.org/1999/02/22-rdf-syntax-ns#"
   xmlns:svg="http://www.w3.org/2000/svg"
   xmlns="http://www.w3.org/2000/svg"
   xmlns:xlink="http://www.w3.org/1999/xlink"
   xmlns:sodipodi="http://sodipodi.sourceforge.net/DTD/sodipodi-0.dtd"
   xmlns:inkscape="http://www.inkscape.org/namespaces/inkscape"
   width="210mm"
   height="297mm"
   viewBox="0 0 210 297"
   version="1.1"
   id="svg8"
   inkscape:version="0.92.4 (5da689c313, 2019-01-14)"
   sodipodi:docname="banner.svg">
  <defs
     id="defs2">
    <inkscape:perspective
       sodipodi:type="inkscape:persp3d"
       inkscape:vp_x="0 : 526.18109 : 1"
       inkscape:vp_y="0 : 1000 : 0"
       inkscape:vp_z="744.09448 : 526.18109 : 1"
       inkscape:persp3d-origin="372.04724 : 350.78739 : 1"
       id="perspective10" />
    <inkscape:perspective
       id="perspective2832"
       inkscape:persp3d-origin="0.5 : 0.33333333 : 1"
       inkscape:vp_z="1 : 0.5 : 1"
       inkscape:vp_y="0 : 1000 : 0"
       inkscape:vp_x="0 : 0.5 : 1"
       sodipodi:type="inkscape:persp3d" />
    <inkscape:perspective
       id="perspective2855"
       inkscape:persp3d-origin="0.5 : 0.33333333 : 1"
       inkscape:vp_z="1 : 0.5 : 1"
       inkscape:vp_y="0 : 1000 : 0"
       inkscape:vp_x="0 : 0.5 : 1"
       sodipodi:type="inkscape:persp3d" />
    <inkscape:perspective
       id="perspective2999"
       inkscape:persp3d-origin="0.5 : 0.33333333 : 1"
       inkscape:vp_z="1 : 0.5 : 1"
       inkscape:vp_y="0 : 1000 : 0"
       inkscape:vp_x="0 : 0.5 : 1"
       sodipodi:type="inkscape:persp3d" />
    <inkscape:perspective
       id="perspective2869"
       inkscape:persp3d-origin="0.5 : 0.33333333 : 1"
       inkscape:vp_z="1 : 0.5 : 1"
       inkscape:vp_y="0 : 1000 : 0"
       inkscape:vp_x="0 : 0.5 : 1"
       sodipodi:type="inkscape:persp3d" />
    <inkscape:perspective
       id="perspective2896"
       inkscape:persp3d-origin="0.5 : 0.33333333 : 1"
       inkscape:vp_z="1 : 0.5 : 1"
       inkscape:vp_y="0 : 1000 : 0"
       inkscape:vp_x="0 : 0.5 : 1"
       sodipodi:type="inkscape:persp3d" />
    <inkscape:perspective
       id="perspective2935"
       inkscape:persp3d-origin="0.5 : 0.33333333 : 1"
       inkscape:vp_z="1 : 0.5 : 1"
       inkscape:vp_y="0 : 1000 : 0"
       inkscape:vp_x="0 : 0.5 : 1"
       sodipodi:type="inkscape:persp3d" />
    <inkscape:perspective
       id="perspective3971"
       inkscape:persp3d-origin="0.5 : 0.33333333 : 1"
       inkscape:vp_z="1 : 0.5 : 1"
       inkscape:vp_y="0 : 1000 : 0"
       inkscape:vp_x="0 : 0.5 : 1"
       sodipodi:type="inkscape:persp3d" />
    <inkscape:perspective
       id="perspective3993"
       inkscape:persp3d-origin="0.5 : 0.33333333 : 1"
       inkscape:vp_z="1 : 0.5 : 1"
       inkscape:vp_y="0 : 1000 : 0"
       inkscape:vp_x="0 : 0.5 : 1"
       sodipodi:type="inkscape:persp3d" />
    <inkscape:perspective
       sodipodi:type="inkscape:persp3d"
       inkscape:vp_x="0 : 526.18109 : 1"
       inkscape:vp_y="0 : 1000 : 0"
       inkscape:vp_z="744.09448 : 526.18109 : 1"
       inkscape:persp3d-origin="372.04724 : 350.78739 : 1"
       id="perspective10-1" />
    <inkscape:perspective
       id="perspective2824"
       inkscape:persp3d-origin="0.5 : 0.33333333 : 1"
       inkscape:vp_z="1 : 0.5 : 1"
       inkscape:vp_y="0 : 1000 : 0"
       inkscape:vp_x="0 : 0.5 : 1"
       sodipodi:type="inkscape:persp3d" />
    <inkscape:perspective
       id="perspective2858"
       inkscape:persp3d-origin="0.5 : 0.33333333 : 1"
       inkscape:vp_z="1 : 0.5 : 1"
       inkscape:vp_y="0 : 1000 : 0"
       inkscape:vp_x="0 : 0.5 : 1"
       sodipodi:type="inkscape:persp3d" />
    <inkscape:perspective
       id="perspective2924"
       inkscape:persp3d-origin="0.5 : 0.33333333 : 1"
       inkscape:vp_z="1 : 0.5 : 1"
       inkscape:vp_y="0 : 1000 : 0"
       inkscape:vp_x="0 : 0.5 : 1"
       sodipodi:type="inkscape:persp3d" />
    <inkscape:perspective
       sodipodi:type="inkscape:persp3d"
       inkscape:vp_x="0 : 526.18109 : 1"
       inkscape:vp_y="0 : 1000 : 0"
       inkscape:vp_z="744.09448 : 526.18109 : 1"
       inkscape:persp3d-origin="372.04724 : 350.78739 : 1"
       id="perspective10-3" />
    <inkscape:perspective
       id="perspective2824-9"
       inkscape:persp3d-origin="0.5 : 0.33333333 : 1"
       inkscape:vp_z="1 : 0.5 : 1"
       inkscape:vp_y="0 : 1000 : 0"
       inkscape:vp_x="0 : 0.5 : 1"
       sodipodi:type="inkscape:persp3d" />
    <inkscape:perspective
       id="perspective2858-7"
       inkscape:persp3d-origin="0.5 : 0.33333333 : 1"
       inkscape:vp_z="1 : 0.5 : 1"
       inkscape:vp_y="0 : 1000 : 0"
       inkscape:vp_x="0 : 0.5 : 1"
       sodipodi:type="inkscape:persp3d" />
    <inkscape:perspective
       id="perspective2924-1"
       inkscape:persp3d-origin="0.5 : 0.33333333 : 1"
       inkscape:vp_z="1 : 0.5 : 1"
       inkscape:vp_y="0 : 1000 : 0"
       inkscape:vp_x="0 : 0.5 : 1"
       sodipodi:type="inkscape:persp3d" />
  </defs>
  <sodipodi:namedview
     id="base"
     pagecolor="#ffffff"
     bordercolor="#666666"
     borderopacity="1.0"
     inkscape:pageopacity="0.0"
     inkscape:pageshadow="2"
     inkscape:zoom="0.7"
     inkscape:cx="109.89365"
     inkscape:cy="694.39617"
     inkscape:document-units="mm"
     inkscape:current-layer="layer1"
     showgrid="false"
     inkscape:window-width="1920"
     inkscape:window-height="1017"
     inkscape:window-x="-8"
     inkscape:window-y="-8"
     inkscape:window-maximized="1" />
  <metadata
     id="metadata5">
    <rdf:RDF>
      <cc:Work
         rdf:about="">
        <dc:format>image/svg+xml</dc:format>
        <dc:type
           rdf:resource="http://purl.org/dc/dcmitype/StillImage" />
        <dc:title></dc:title>
      </cc:Work>
    </rdf:RDF>
  </metadata>
  <g
     inkscape:label="Capa 1"
     inkscape:groupmode="layer"
     id="layer1">
    <g
       id="g1974"
       transform="translate(16.630953,-102.80952)"
       inkscape:export-filename="D:\xampp\htdocs\proyectos\gif-tower-defense-p5js\img\github_readme\banner.png"
       inkscape:export-xdpi="103.47069"
       inkscape:export-ydpi="103.47069">
      <rect
         ry="5.5"
         y="121.13665"
         x="3.7417734"
         height="35.101364"
         width="171.83611"
         id="rect1586"
         style="fill:#afc6e9;fill-opacity:1;stroke:none;stroke-width:0.75;stroke-opacity:1" />
      <g
         transform="translate(4.2611845,58.645666)"
         id="g1636">
        <g
           id="layer1-21"
           inkscape:label="Capa 1"
           transform="translate(-52.916666,31.75)">
          <g
             transform="matrix(0.26458333,0,0,0.26458333,10.012638,-58.2688)"
             id="g889"
             style="display:inline">
            <g
               inkscape:label="Escaneado"
               id="layer1-2"
               transform="translate(0,-308.2677)"
               style="display:none">
              <flowRoot
                 xml:space="preserve"
                 id="flowRoot2816"
                 style="font-style:normal;font-variant:normal;font-weight:normal;font-stretch:normal;line-height:0.01%;font-family:Haettenschweiler;-inkscape-font-specification:Haettenschweiler;fill:#000000;fill-opacity:1;stroke:none"
                 transform="translate(-342.24536,221.29729)"><flowRegion
                   id="flowRegion2818"><rect
                     id="rect2820"
                     width="815.20459"
                     height="275.66983"
                     x="167.13388"
                     y="162.49753"
                     style="font-style:normal;font-variant:normal;font-weight:normal;font-stretch:normal;font-family:Haettenschweiler;-inkscape-font-specification:Haettenschweiler" /></flowRegion><flowPara
                   id="flowPara2822"
                   style="font-style:normal;font-variant:normal;font-weight:normal;font-stretch:normal;font-size:125px;line-height:1.25;font-family:Impact;-inkscape-font-specification:Impact">GIF</flowPara></flowRoot>              <image
                 y="-592.45081"
                 x="596.49786"
                 id="image2834"
                 height="498.41776"
                 width="367.61514"
                 xlink:href="file:///D:/Escaneadas/2011_03_27/IMG.jpg"
                 transform="rotate(90)" />
            </g>
            <g
               id="layer3"
               inkscape:label="Fondo"
               style="display:inline" />
            <g
               id="layer2"
               inkscape:label="Logo"
               style="display:inline">
              <g
                 id="g3021"
                 transform="rotate(180,227.83103,375.65841)" />
              <path
                 inkscape:connector-curvature="0"
                 style="fill:#ff6600;fill-opacity:1;stroke:#000000;stroke-width:2;stroke-linecap:butt;stroke-linejoin:miter;stroke-opacity:1"
                 d="m 231.59108,396.2326 -8.09375,15.09375 v 5.06755 l 19.625,0.0625 v -20.1613 z"
                 id="path2903"
                 sodipodi:nodetypes="cccccc" />
              <path
                 inkscape:connector-curvature="0"
                 style="fill:#ff6600;fill-opacity:1;stroke:#000000;stroke-width:2;stroke-linecap:butt;stroke-linejoin:miter;stroke-opacity:1"
                 d="m 214.74733,358.6076 -24.25,45.21875 v 36.4375 l 6.59375,6.625 h 45.9375 V 420.8576 h -31.625 v -10.375 c 4.72387,-8.79283 14.29697,-26.60666 14.34375,-26.78125 l 17.28125,-0.21875 v -24.875 z"
                 id="path3019" />
              <path
                 inkscape:connector-curvature="0"
                 style="fill:#ff6600;fill-opacity:1;stroke:#000000;stroke-width:2;stroke-linecap:butt;stroke-linejoin:miter;stroke-opacity:1"
                 d="m 247.30983,358.6076 v 24.875 h 25.40625 v -24.875 z"
                 id="path3017" />
              <path
                 inkscape:connector-curvature="0"
                 style="fill:#ff6600;fill-opacity:1;stroke:#000000;stroke-width:2;stroke-linecap:butt;stroke-linejoin:miter;stroke-opacity:1"
                 d="m 276.77858,358.6076 v 88.28125 h 20.78125 V 418.1076 h 7.125 l 11.71875,-21.875 h -19.1875 l -0.0937,-12.625 h 26.03125 l 13.40625,-25 h -59.78125 z"
                 id="path3015" />
              <path
                 inkscape:connector-curvature="0"
                 style="fill:#ff6600;fill-opacity:1;stroke:#000000;stroke-width:2;stroke-linecap:butt;stroke-linejoin:miter;stroke-opacity:1"
                 d="m 247.30983,396.2326 v 50.65625 h 25.40625 V 396.2326 Z"
                 id="path2908" />
              <path
                 inkscape:connector-curvature="0"
                 style="fill:#ffffff;fill-opacity:1;stroke:#000000;stroke-width:2;stroke-linecap:butt;stroke-linejoin:round;stroke-opacity:1"
                 d="m 299.87407,386.41577 v 6.96875 h 21.85092 l -13.38391,24.87933 h 8.09375 l 13.35266,-24.87933 h 14.48173 c 0.0302,0 4.8125,-6.96875 4.8125,-6.96875 z"
                 id="path2961"
                 sodipodi:nodetypes="ccccccccc" />
              <path
                 inkscape:connector-curvature="0"
                 id="path2963"
                 d="m 331.92639,395.96561 -11.94877,22.29672 h 22.29671 l 11.94877,-22.29672 z m 3.28074,6.83738 h 8.68647 l -4.66658,8.70797 h -8.68648 z"
                 style="fill:#ffffff;fill-opacity:1;stroke:#000000;stroke-width:2;stroke-linecap:butt;stroke-linejoin:round;stroke-opacity:1" />
              <path
                 inkscape:connector-curvature="0"
                 id="path2965"
                 d="m 358.16709,395.44959 -12.22531,22.81274 h 7.31 l 8.45747,-9.48202 h 1.65559 l -1.70532,9.48202 h 7.095 l 12.22531,-22.81274 h -4.66941 l -6.2173,9.48201 h -1.63409 l 3.70532,-9.48201 h -5.18178 l -6.45747,9.48201 h -1.63409 l 4.23351,-9.48201 z"
                 style="fill:#ffffff;fill-opacity:1;stroke:#000000;stroke-width:2;stroke-linecap:butt;stroke-linejoin:round;stroke-opacity:1"
                 sodipodi:nodetypes="ccccccccccccccccc" />
              <path
                 inkscape:connector-curvature="0"
                 sodipodi:nodetypes="ccccccccccccc"
                 id="path2967"
                 d="m 384.42328,395.47294 -12.21379,22.79124 h 20.06059 l 3.09954,-5.78382 h -12.23417 l 1.62467,-3.03166 h 12.23416 l 2.77691,-5.18178 h -12.23417 l 1.61315,-3.01017 h 12.23416 l 3.09954,-5.78381 z"
                 style="fill:#ffffff;fill-opacity:1;stroke:#000000;stroke-width:2;stroke-linecap:butt;stroke-linejoin:round;stroke-opacity:1" />
              <path
                 inkscape:connector-curvature="0"
                 style="fill:#ffffff;fill-opacity:1;stroke:#000000;stroke-width:2;stroke-linecap:butt;stroke-linejoin:miter;stroke-opacity:1"
                 d="m 408.0625,395.46875 -12.21875,22.8125 H 403 l 3.90625,-7.3125 0.78125,7.3125 h 8.59375 l -0.40625,-9.15625 6.5,-3.5 5.46875,-10.15625 z m 4.46875,4.21875 h 5.84375 l -0.78125,1.5 -7.65625,3.375 z"
                 id="path2969" />
              <path
                 inkscape:connector-curvature="0"
                 sodipodi:nodetypes="cccccccccccccc"
                 id="path2973"
                 d="m 370.3943,421.70039 -12.21379,22.79124 h 15.84029 l 6.49033,-4.40774 7.48958,-13.97576 -1.76612,-4.40774 z m 5.69722,5.32122 h 1.01056 l 1.05691,2.60164 -3.71022,6.92338 -3.85687,2.62314 h -1.01056 z"
                 style="fill:#ffffff;fill-opacity:1;stroke:#000000;stroke-width:2;stroke-linecap:butt;stroke-linejoin:round;stroke-opacity:1" />
              <path
                 inkscape:connector-curvature="0"
                 style="fill:#ffffff;fill-opacity:1;stroke:#000000;stroke-width:2;stroke-linecap:butt;stroke-linejoin:round;stroke-opacity:1"
                 d="m 394.07378,421.70039 -12.21379,22.79124 h 20.39596 l 3.09954,-5.78382 h -12.56954 l 1.62467,-3.03166 h 12.56953 l 2.77691,-5.18178 h -12.56953 l 1.61314,-3.01017 h 12.56953 l 3.09954,-5.78381 z"
                 id="path2975"
                 sodipodi:nodetypes="ccccccccccccc" />
              <path
                 inkscape:connector-curvature="0"
                 sodipodi:nodetypes="ccccccccccc"
                 id="path2977"
                 d="m 418.0582,421.70039 -12.21378,22.79124 h 7.82642 l 4.7242,-8.81548 h 12.23417 l 2.77691,-5.18178 h -12.23417 l 1.61314,-3.01017 h 12.23417 l 3.09954,-5.78381 z"
                 style="fill:#ffffff;fill-opacity:1;stroke:#000000;stroke-width:2;stroke-linecap:butt;stroke-linejoin:round;stroke-opacity:1" />
              <path
                 inkscape:connector-curvature="0"
                 sodipodi:nodetypes="ccccccccccccc"
                 id="path2979"
                 d="m 441.62653,421.70039 -12.21378,22.79124 h 20.06059 l 3.09953,-5.78382 h -12.23416 l 1.62466,-3.03166 h 12.23417 l 2.77691,-5.18178 h -12.23417 l 1.61314,-3.01017 h 12.23417 l 3.09954,-5.78381 z"
                 style="fill:#ffffff;fill-opacity:1;stroke:#000000;stroke-width:2;stroke-linecap:butt;stroke-linejoin:round;stroke-opacity:1" />
              <path
                 inkscape:connector-curvature="0"
                 sodipodi:nodetypes="ccccccccccccc"
                 id="path2981"
                 d="m 465.11663,421.67704 -12.22531,22.81274 h 7.15989 l 4.83943,-9.03049 h 1.26857 l -1.46336,9.03049 h 11.00821 l 12.22531,-22.81274 h -7.3319 l -4.85094,9.05199 h -1.29007 l 1.47487,-9.05199 z"
                 style="fill:#ffffff;fill-opacity:1;stroke:#000000;stroke-width:2;stroke-opacity:1" />
              <path
                 inkscape:connector-curvature="0"
                 sodipodi:nodetypes="ccccccccccccc"
                 style="fill:#ffffff;fill-opacity:1;stroke:#000000;stroke-width:2;stroke-opacity:1"
                 d="m 491.44106,421.67704 h 18.81274 l -3.25183,5.81192 -9.61563,1.34797 -0.67983,1.26856 8.29306,1.37608 -6.97108,13.00821 h -18.81274 l 3.29176,-5.56595 9.68939,-1.76595 0.69134,-1.29007 -8.31455,-1.37608 z"
                 id="path2983" />
              <path
                 inkscape:connector-curvature="0"
                 style="fill:#ffffff;fill-opacity:1;stroke:#000000;stroke-width:2;stroke-linecap:butt;stroke-linejoin:round;stroke-opacity:1"
                 d="m 513.75607,421.70039 -12.21379,22.79124 h 20.06059 l 3.09954,-5.78382 h -12.23416 l 1.62466,-3.03166 h 12.23417 l 2.7769,-5.18178 h -12.23416 l 1.61314,-3.01017 h 12.23417 l 3.09953,-5.78381 z"
                 id="path2985"
                 sodipodi:nodetypes="ccccccccccccc" />
            </g>
          </g>
        </g>
        <g
           id="g1463"
           transform="matrix(0.66874782,0,0,0.66874782,130.67737,-49.445823)">
          <path
             style="fill:#ffe6d5;stroke:#803300;stroke-width:1.05833328"
             d="m 33.788472,186.29848 c -0.314502,0.009 -0.570994,0.0395 -0.768945,0.0413 -2.894772,0.13413 -5.572786,2.70537 -5.572786,6.04408 0,6.79007 6.303941,8.49544 10.599869,15.20527 4.064537,-6.66663 10.59987,-8.63429 10.59987,-15.20527 0,-3.33871 -2.492325,-5.82053 -5.564518,-6.04408 -0.769453,-0.007 -2.706815,-0.41216 -5.035352,1.54616 -1.865278,-1.482 -3.314628,-1.61543 -4.258138,-1.5875 z m 0.132292,1.88516 c 1.825908,0 3.397332,1.0822 4.125846,2.63756 0.728493,-1.55536 2.3011,-2.63756 4.125847,-2.63756 2.518354,0 4.564062,2.04922 4.564062,4.57233 0,4.96577 -5.358106,6.51266 -8.689909,11.55072 -3.521479,-5.07071 -8.68164,-6.41938 -8.68164,-11.55072 0,-2.52311 2.036278,-4.57233 4.555794,-4.57233 z"
             id="path3831"
             inkscape:connector-curvature="0" />
          <g
             id="g3776"
             transform="matrix(2.1507844,0,0,2.1507844,-473.65074,-292.04752)">
            <path
               id="path3778"
               sodipodi:nodetypes="ccccccc"
               d="m 235.99367,223.28187 c -1.17144,0 -2.12103,0.95139 -2.12103,2.1245 0,2.3858 2.40131,3.01139 4.03861,5.369 1.54911,-2.34243 4.03861,-3.06018 4.03861,-5.369 0,-1.17311 -0.95013,-2.1245 -2.12103,-2.1245 -0.84841,0 -1.57887,0.50199 -1.91758,1.22515 -0.33872,-0.72316 -1.06863,-1.22515 -1.91758,-1.22515 z"
               style="opacity:0.39183673;fill:#d45500;fill-opacity:1;stroke:#552200;stroke-width:0.54462361"
               inkscape:connector-curvature="0" />
            <path
               id="path3780"
               sodipodi:nodetypes="ccccccc"
               d="m 235.99367,223.28187 c -1.17144,0 -2.12103,0.95139 -2.12103,2.1245 0,2.3858 2.40131,3.01139 4.03861,5.369 1.54911,-2.34243 4.03861,-3.06018 4.03861,-5.369 0,-1.17311 -0.95013,-2.1245 -2.12103,-2.1245 -0.84841,0 -1.57887,0.50199 -1.91758,1.22515 -0.33872,-0.72316 -1.06863,-1.22515 -1.91758,-1.22515 z"
               style="fill:none;stroke:#803300;stroke-width:0.54462361"
               inkscape:connector-curvature="0" />
          </g>
        </g>
        <g
           id="g1574"
           transform="translate(-9.3576918,51.608256)">
          <g
             id="g3803"
             transform="matrix(0.15785769,0,0,0.15785769,54.523312,-34.71677)">
            <path
               inkscape:connector-curvature="0"
               style="fill:#008000;fill-opacity:1;stroke:none"
               d="m 448.6221,364.34447 -36.40685,65.45001 21.26924,28.79345 h 30.27522 l 21.26923,-28.79345 z"
               id="path3645"
               sodipodi:nodetypes="cccccc"
               inkscape:export-xdpi="18.203581"
               inkscape:export-ydpi="18.203581" />
            <path
               inkscape:connector-curvature="0"
               inkscape:export-ydpi="18.203581"
               inkscape:export-xdpi="18.203581"
               sodipodi:nodetypes="cccccc"
               id="path3647"
               d="m 448.6221,381.57578 -25.85511,46.48074 15.1048,20.44829 h 21.50061 l 15.1048,-20.44829 z"
               style="fill:#00c200;fill-opacity:1;stroke:none" />
            <path
               inkscape:connector-curvature="0"
               style="fill:#008000;stroke:none"
               d="m 408.26074,435.90862 21.8634,29.91832 h -11.21938 l -21.37471,-29.96921 10.73069,0.0509 v 2e-5 z"
               id="path3649"
               sodipodi:nodetypes="cccccc" />
            <path
               inkscape:connector-curvature="0"
               sodipodi:nodetypes="cccccc"
               id="path3651"
               d="m 489.01109,435.90862 -21.8634,29.91832 h 11.21937 l 21.37471,-29.96921 -10.73068,0.0509 v 2e-5 z"
               style="fill:#008000;stroke:none" />
          </g>
        </g>
        <g
           id="g1584"
           transform="translate(-16.817508,19.139217)">
          <g
             transform="matrix(0.09403321,0,0,0.08340778,221.80196,20.713696)"
             id="g3738">
            <circle
               r="61.997795"
               cy="518.73828"
               cx="-732.90253"
               id="path3740"
               style="fill:#aa0000;fill-opacity:1;stroke:none"
               transform="matrix(0.86986504,0,0,0.86986504,-95.376243,67.505987)" />
            <rect
               y="415.41501"
               x="-753.04462"
               height="147.60727"
               width="39.855724"
               id="rect3742"
               style="fill:#aa0000;fill-opacity:1;stroke:none" />
          </g>
          <ellipse
             ry="3.3053863"
             rx="3.7264643"
             cy="63.963154"
             cx="152.88478"
             id="path3744"
             style="fill:#ff5555;fill-opacity:1;stroke:none;stroke-width:0.05660872" />
          <rect
             y="-63.665436"
             x="152.15414"
             height="7.281878"
             width="1.4182439"
             id="rect3746"
             style="fill:#ff5555;fill-opacity:1;stroke:none;stroke-width:0.26458332"
             transform="scale(1,-1)" />
          <path
             inkscape:connector-curvature="0"
             style="fill:#aa0000;fill-opacity:1;stroke:none;stroke-width:0.26458332"
             d="m 145.38028,61.788541 c -0.19182,0.641332 -0.29599,1.31794 -0.29599,2.017617 0,2.028736 0.86214,3.869127 2.25934,5.20437 l 1.12474,-1.100068 c -1.09669,-1.056476 -1.77097,-2.505509 -1.77097,-4.104302 0,-0.556566 0.0836,-1.093173 0.23679,-1.603242 z"
             id="path3748" />
          <path
             inkscape:connector-curvature="0"
             style="fill:#aa0000;fill-opacity:1;stroke:none;stroke-width:0.26458332"
             d="m 149.84469,68.906936 -0.77942,1.346724 c 1.12526,0.599099 2.4259,0.937279 3.80832,0.937279 1.3244,0 2.56853,-0.310166 3.66032,-0.863283 l -0.76462,-1.351658 c -0.86439,0.436372 -1.84819,0.685694 -2.8957,0.685694 -1.10038,0 -2.13402,-0.276474 -3.0289,-0.754756 z"
             id="path3789" />
          <path
             inkscape:connector-curvature="0"
             style="fill:#aa0000;fill-opacity:1;stroke:none;stroke-width:0.26458332"
             d="m 160.33729,61.709611 -1.55391,0.399579 c 0.17136,0.53698 0.26639,1.107056 0.26639,1.696968 0,1.636721 -0.71188,3.115977 -1.85483,4.178298 l 1.10994,1.109935 c 1.45117,-1.341768 2.35306,-3.215368 2.35306,-5.288233 0,-0.728659 -0.11321,-1.431739 -0.32065,-2.096547 z"
             id="path3791" />
        </g>
      </g>
    </g>
    <g
       transform="matrix(0.26458333,0,0,0.26458333,49.717043,-90.802523)"
       id="g3056" />
  </g>
</svg>
